<svg width="215" height="40" viewBox="0 0 215 40" fill="none" xmlns="http://www.w3.org/2000/svg">
<path d="M188.371 21.8307C187.199 21 185.889 20.3977 184.65 19.6693C183.827 19.2417 183.041 18.7371 182.302 18.1614C181.122 17.126 181.359 15.0866 182.605 14.1968C184.373 12.933 187.313 13.6496 187.617 16.2205C187.618 16.2473 187.63 16.2723 187.648 16.2906C187.667 16.3088 187.691 16.319 187.716 16.3189H190.387C190.402 16.319 190.417 16.3157 190.431 16.3092C190.444 16.3027 190.457 16.2933 190.467 16.2814C190.477 16.2695 190.485 16.2555 190.489 16.2402C190.494 16.225 190.496 16.2088 190.494 16.1929C190.35 14.4173 189.717 12.9409 188.541 11.996C187.453 11.1038 186.12 10.6169 184.747 10.6102C177.671 10.6102 177.028 18.5827 180.833 21.0985C181.277 21.3898 185.009 23.3859 186.329 24.2481C187.65 25.1103 188.064 26.7087 187.491 27.9725C186.969 29.13 185.616 29.9056 184.262 29.8308C182.783 29.7481 181.636 28.8899 181.233 27.5552C181.168 27.2596 181.133 26.9573 181.129 26.6536C181.127 26.6247 181.115 26.5977 181.095 26.5779C181.076 26.5582 181.049 26.5472 181.022 26.5473H178.115C178.086 26.5483 178.059 26.5612 178.039 26.5833C178.019 26.6053 178.008 26.6348 178.008 26.6654C178.008 28.9017 178.533 30.1379 179.946 31.2678C181.184 32.268 182.7 32.8 184.255 32.7796C188.208 32.7796 190.272 30.3938 190.679 27.9213C191.086 25.4489 190.416 23.2717 188.371 21.8307Z" fill="#F7F7F7"/>
<path d="M62.4434 10.9921H59.762C59.7394 10.9913 59.7173 10.9986 59.6992 11.0129C59.681 11.0272 59.668 11.0477 59.6621 11.0709L57.2729 19.4213C57.2669 19.4446 57.2539 19.4652 57.2358 19.4798C57.2178 19.4944 57.1957 19.5024 57.173 19.5024C57.1503 19.5024 57.1283 19.4944 57.1102 19.4798C57.0922 19.4652 57.0792 19.4446 57.0732 19.4213L54.6876 11.0709C54.6805 11.0477 54.6666 11.0275 54.648 11.0134C54.6294 10.9992 54.607 10.9918 54.5841 10.9921H50.1717C50.1439 10.9921 50.1172 11.0036 50.0972 11.0242C50.0771 11.0447 50.0654 11.0728 50.0645 11.1024V32.4372C50.0645 32.4675 50.0758 32.4965 50.0959 32.5179C50.116 32.5393 50.1433 32.5514 50.1717 32.5514H53.0788C53.0927 32.5514 53.1064 32.5484 53.1193 32.5426C53.1321 32.5368 53.1437 32.5284 53.1533 32.5177C53.163 32.507 53.1705 32.4944 53.1755 32.4806C53.1805 32.4668 53.1828 32.452 53.1823 32.4372V16.2284C53.1843 16.2026 53.1944 16.1782 53.2111 16.1594C53.2278 16.1405 53.25 16.1282 53.2741 16.1246C53.2981 16.1209 53.3227 16.1261 53.3436 16.1392C53.3646 16.1524 53.3808 16.1727 53.3894 16.1969L55.7935 24.6025L55.9599 25.1891C55.967 25.2123 55.9809 25.2324 55.9995 25.2466C56.0182 25.2608 56.0406 25.2682 56.0635 25.2678H58.2826C58.3055 25.2682 58.3279 25.2608 58.3465 25.2466C58.3651 25.2324 58.379 25.2123 58.3861 25.1891L58.5526 24.6025L60.9566 16.1969C60.9653 16.1727 60.9814 16.1524 61.0024 16.1392C61.0234 16.1261 61.0479 16.1209 61.072 16.1246C61.0961 16.1282 61.1183 16.1405 61.135 16.1594C61.1516 16.1782 61.1618 16.2026 61.1637 16.2284V32.4372C61.1632 32.452 61.1655 32.4668 61.1705 32.4806C61.1755 32.4944 61.1831 32.507 61.1927 32.5177C61.2024 32.5284 61.214 32.5368 61.2268 32.5426C61.2396 32.5484 61.2534 32.5514 61.2673 32.5514H64.1743C64.2028 32.5514 64.2301 32.5393 64.2502 32.5179C64.2703 32.4965 64.2816 32.4675 64.2816 32.4372V11.1024C64.2806 11.0728 64.2689 11.0447 64.2489 11.0242C64.2289 11.0036 64.2022 10.9921 64.1743 10.9921H62.4434Z" fill="#F7F7F7"/>
<path d="M143.955 10.9921C143.933 10.9925 143.911 11.0004 143.893 11.0145C143.875 11.0286 143.862 11.0483 143.855 11.0708L141.47 19.4213C141.463 19.444 141.449 19.4637 141.431 19.4777C141.412 19.4917 141.39 19.4992 141.368 19.4992C141.345 19.4992 141.324 19.4917 141.305 19.4777C141.287 19.4637 141.273 19.444 141.266 19.4213L138.881 11.0708C138.874 11.048 138.861 11.0279 138.843 11.0137C138.825 10.9995 138.803 10.9919 138.781 10.9921H134.368C134.341 10.992 134.314 11.0035 134.294 11.0241C134.274 11.0447 134.262 11.0727 134.261 11.1023V32.4371C134.261 32.4674 134.273 32.4964 134.293 32.5179C134.313 32.5393 134.34 32.5513 134.368 32.5513H137.276C137.303 32.5503 137.33 32.5378 137.349 32.5165C137.368 32.4952 137.379 32.4667 137.379 32.4371V16.2283C137.381 16.2025 137.391 16.1782 137.408 16.1593C137.425 16.1404 137.447 16.1282 137.471 16.1245C137.495 16.1209 137.519 16.126 137.54 16.1392C137.561 16.1523 137.578 16.1726 137.586 16.1968L139.99 24.6024L140.157 25.189C140.164 25.2116 140.177 25.2313 140.195 25.2454C140.213 25.2595 140.234 25.2673 140.257 25.2678H142.476C142.498 25.2686 142.52 25.2613 142.539 25.247C142.557 25.2327 142.57 25.2122 142.576 25.189L142.746 24.6024L145.146 16.1968C145.155 16.1726 145.171 16.1523 145.192 16.1392C145.213 16.126 145.237 16.1209 145.261 16.1245C145.285 16.1282 145.308 16.1404 145.324 16.1593C145.341 16.1782 145.351 16.2025 145.353 16.2283V32.4371C145.353 32.4674 145.364 32.4964 145.385 32.5179C145.405 32.5393 145.432 32.5513 145.46 32.5513H148.367C148.395 32.5503 148.422 32.5378 148.441 32.5165C148.46 32.4952 148.471 32.4667 148.471 32.4371V11.1023C148.47 11.0734 148.459 11.0459 148.44 11.0254C148.42 11.005 148.395 10.993 148.367 10.9921H143.955Z" fill="#F7F7F7"/>
<path d="M106.545 10.9921H92.8602C92.8324 10.992 92.8056 11.0035 92.7856 11.0241C92.7656 11.0447 92.7539 11.0727 92.7529 11.1023V13.7716C92.7539 13.8012 92.7656 13.8293 92.7856 13.8498C92.8056 13.8704 92.8324 13.8819 92.8602 13.8819H98.1602V32.4371C98.1602 32.4521 98.163 32.467 98.1683 32.4808C98.1737 32.4947 98.1816 32.5073 98.1916 32.5179C98.2016 32.5285 98.2134 32.5369 98.2264 32.5426C98.2394 32.5483 98.2533 32.5513 98.2674 32.5513H101.174C101.202 32.5503 101.229 32.5378 101.248 32.5165C101.267 32.4952 101.278 32.4667 101.278 32.4371V13.8819H106.545C106.573 13.8819 106.599 13.8704 106.619 13.8498C106.639 13.8293 106.651 13.8012 106.652 13.7716V11.1023C106.651 11.0727 106.639 11.0447 106.619 11.0241C106.599 11.0035 106.573 10.992 106.545 10.9921Z" fill="#F7F7F7"/>
<path d="M123.665 32.5513H126.306C126.322 32.5514 126.338 32.5475 126.352 32.5398C126.367 32.5322 126.38 32.521 126.389 32.5072C126.399 32.4934 126.406 32.4774 126.408 32.4605C126.411 32.4435 126.41 32.4261 126.406 32.4096L120.969 11.0039C120.962 10.98 120.949 10.959 120.93 10.944C120.911 10.9291 120.889 10.9211 120.865 10.9212H117.071C117.047 10.9211 117.024 10.9291 117.006 10.944C116.987 10.959 116.973 10.98 116.967 11.0039L111.512 32.4096C111.508 32.4263 111.508 32.4439 111.511 32.4608C111.514 32.4777 111.521 32.4936 111.531 32.5072C111.541 32.5209 111.554 32.5319 111.568 32.5396C111.583 32.5472 111.599 32.5512 111.615 32.5513H114.256C114.279 32.5503 114.302 32.5413 114.32 32.5257C114.338 32.5101 114.35 32.4887 114.356 32.4647L115.943 26.2442C115.948 26.2206 115.961 26.1997 115.979 26.1847C115.997 26.1698 116.02 26.1616 116.042 26.1615H121.879C121.901 26.1622 121.923 26.1706 121.941 26.1855C121.959 26.2003 121.972 26.2209 121.979 26.2442L123.558 32.4607C123.562 32.4872 123.576 32.5109 123.595 32.5276C123.615 32.5442 123.64 32.5527 123.665 32.5513ZM116.734 23.13L118.857 14.7953C118.864 14.7726 118.878 14.7528 118.896 14.7388C118.914 14.7248 118.936 14.7173 118.959 14.7173C118.981 14.7173 119.003 14.7248 119.021 14.7388C119.04 14.7528 119.053 14.7726 119.06 14.7953L121.183 23.13C121.188 23.1465 121.189 23.1639 121.186 23.1809C121.183 23.1978 121.177 23.2138 121.167 23.2276C121.157 23.2414 121.145 23.2526 121.13 23.2602C121.116 23.2679 121.1 23.2718 121.084 23.2717H116.838C116.821 23.2716 116.805 23.2676 116.791 23.26C116.776 23.2523 116.763 23.2413 116.753 23.2276C116.743 23.214 116.737 23.1981 116.733 23.1812C116.73 23.1642 116.73 23.1467 116.734 23.13Z" fill="#F7F7F7"/>
<path d="M168.68 32.5514H171.317C171.333 32.5513 171.349 32.5473 171.364 32.5396C171.378 32.532 171.391 32.5209 171.401 32.5073C171.411 32.4936 171.418 32.4777 171.421 32.4608C171.425 32.4439 171.425 32.4264 171.421 32.4096L165.965 11.0039C165.959 10.9797 165.946 10.9583 165.927 10.9432C165.908 10.9282 165.885 10.9205 165.862 10.9213H162.082C162.058 10.9212 162.036 10.9292 162.017 10.9441C161.998 10.959 161.985 10.98 161.978 11.0039L156.527 32.4096C156.523 32.4261 156.522 32.4433 156.526 32.4599C156.529 32.4765 156.535 32.4922 156.545 32.5058C156.554 32.5194 156.567 32.5305 156.581 32.5384C156.595 32.5463 156.611 32.5507 156.626 32.5514H159.267C159.291 32.551 159.313 32.5423 159.331 32.5266C159.349 32.5109 159.362 32.4891 159.367 32.4647L160.954 26.2442C160.96 26.2203 160.974 26.1993 160.993 26.1844C161.011 26.1694 161.034 26.1614 161.057 26.1615H166.89C166.913 26.1616 166.935 26.1698 166.953 26.1848C166.971 26.1997 166.984 26.2206 166.99 26.2442L168.576 32.4647C168.582 32.4894 168.595 32.5113 168.614 32.527C168.633 32.5426 168.656 32.5512 168.68 32.5514ZM161.749 23.13L163.872 14.7953C163.879 14.7726 163.893 14.7529 163.911 14.7389C163.929 14.7249 163.951 14.7174 163.974 14.7174C163.996 14.7174 164.018 14.7249 164.036 14.7389C164.055 14.7529 164.068 14.7726 164.075 14.7953L166.198 23.13C166.202 23.1468 166.202 23.1643 166.199 23.1812C166.196 23.1981 166.189 23.214 166.179 23.2277C166.169 23.2413 166.156 23.2524 166.142 23.26C166.127 23.2676 166.111 23.2717 166.095 23.2718H161.849C161.833 23.2719 161.817 23.2679 161.802 23.2603C161.788 23.2526 161.775 23.2414 161.765 23.2277C161.756 23.2139 161.749 23.1979 161.746 23.1809C161.743 23.164 161.744 23.1465 161.749 23.13Z" fill="#F7F7F7"/>
<path d="M76.0171 29.3977V22.7756C76.0166 22.761 76.0189 22.7464 76.0239 22.7328C76.0289 22.7192 76.0366 22.7068 76.0463 22.6964C76.056 22.6861 76.0676 22.678 76.0804 22.6727C76.0932 22.6673 76.1069 22.6648 76.1207 22.6654H83.8432C83.871 22.6644 83.8973 22.6519 83.9166 22.6306C83.936 22.6093 83.9468 22.5808 83.9467 22.5512V19.8858C83.9468 19.8562 83.936 19.8278 83.9166 19.8065C83.8973 19.7852 83.871 19.7727 83.8432 19.7717H76.1207C76.0932 19.7717 76.0668 19.7601 76.0474 19.7394C76.028 19.7187 76.0171 19.6907 76.0171 19.6614V13.996C76.0166 13.9812 76.0189 13.9665 76.0239 13.9526C76.0289 13.9388 76.0364 13.9262 76.0461 13.9155C76.0558 13.9049 76.0673 13.8964 76.0802 13.8906C76.093 13.8848 76.1067 13.8818 76.1207 13.8819H84.9084C84.9362 13.8819 84.9629 13.8704 84.9829 13.8498C85.0029 13.8293 85.0146 13.8012 85.0156 13.7716V11.1023C85.0146 11.0727 85.0029 11.0447 84.9829 11.0241C84.9629 11.0035 84.9362 10.992 84.9084 10.9921H73.0028C72.9753 10.9921 72.949 11.0037 72.9296 11.0243C72.9101 11.045 72.8992 11.0731 72.8992 11.1023V32.4371C72.8987 32.4519 72.901 32.4667 72.906 32.4805C72.911 32.4944 72.9186 32.507 72.9282 32.5176C72.9379 32.5283 72.9495 32.5368 72.9623 32.5425C72.9751 32.5483 72.9889 32.5513 73.0028 32.5513H85.2856C85.3141 32.5513 85.3413 32.5393 85.3614 32.5179C85.3816 32.4964 85.3929 32.4674 85.3929 32.4371V29.6221C85.3929 29.5919 85.3816 29.5628 85.3614 29.5414C85.3413 29.52 85.3141 29.508 85.2856 29.508H76.1207C76.1069 29.5085 76.0932 29.506 76.0804 29.5007C76.0676 29.4954 76.056 29.4873 76.0463 29.4769C76.0366 29.4666 76.0289 29.4542 76.0239 29.4406C76.0189 29.4269 76.0166 29.4124 76.0171 29.3977Z" fill="#F7F7F7"/>
<path d="M214.882 32.3584L204.844 21.315C204.834 21.3047 204.827 21.2925 204.821 21.279C204.816 21.2654 204.813 21.2509 204.813 21.2362C204.813 21.2216 204.816 21.2071 204.821 21.1935C204.827 21.18 204.834 21.1678 204.844 21.1575L213.872 11.2007C213.887 11.1853 213.897 11.1655 213.901 11.1439C213.906 11.1223 213.903 11.0999 213.896 11.0796C213.888 11.0592 213.874 11.0419 213.857 11.0298C213.839 11.0177 213.819 11.0114 213.798 11.0117H210.104C210.089 11.0117 210.075 11.0149 210.061 11.021C210.048 11.0271 210.036 11.036 210.026 11.0472L202.363 19.5158C202.348 19.5323 202.329 19.5437 202.308 19.5486C202.287 19.5534 202.265 19.5515 202.245 19.543C202.225 19.5346 202.208 19.5199 202.196 19.501C202.184 19.4821 202.178 19.4598 202.178 19.437V11.1023C202.178 11.0731 202.167 11.045 202.147 11.0243C202.128 11.0037 202.102 10.9921 202.074 10.9921H199.167C199.139 10.992 199.113 11.0035 199.093 11.0241C199.072 11.0447 199.061 11.0727 199.06 11.1023V32.4371C199.06 32.4674 199.071 32.4964 199.091 32.5179C199.111 32.5393 199.139 32.5513 199.167 32.5513H202.074C202.088 32.5513 202.102 32.5483 202.115 32.5425C202.127 32.5368 202.139 32.5283 202.149 32.5176C202.158 32.507 202.166 32.4944 202.171 32.4805C202.176 32.4667 202.178 32.4519 202.178 32.4371V23.0473C202.178 23.0253 202.185 23.004 202.197 22.9859C202.209 22.9678 202.225 22.9538 202.244 22.9455C202.263 22.9371 202.285 22.9349 202.305 22.939C202.325 22.9431 202.344 22.9533 202.359 22.9685L211.039 32.5159C211.059 32.5375 211.085 32.5503 211.113 32.5513H214.812C214.832 32.5499 214.852 32.5422 214.868 32.5294C214.885 32.5165 214.897 32.4989 214.905 32.4787C214.912 32.4584 214.914 32.4363 214.91 32.415C214.906 32.3937 214.896 32.3741 214.882 32.3584Z" fill="#F7F7F7"/>
<path d="M36.5738 1.22052L22.0457 12.8193L24.7438 5.97629L36.5738 1.22052Z" fill="#F7F7F7" stroke="#F7F7F7" stroke-width="0.712817" stroke-linecap="round" stroke-linejoin="round"/>
<path d="M2.3291 1.22052L17.3761 12.8193L14.694 5.9317L2.3291 1.22052Z" fill="#F7F7F7" stroke="#F7F7F7" stroke-width="0.712817" stroke-linecap="round" stroke-linejoin="round"/>
<path d="M31.1945 28.2842L27.2341 34.6693L35.7084 37.1214L38.1302 28.4252L31.1945 28.2842Z" fill="#F7F7F7" stroke="#F7F7F7" stroke-width="0.712817" stroke-linecap="round" stroke-linejoin="round"/>
<path d="M0.772461 28.4252L3.18284 37.1214L11.6685 34.6693L7.71759 28.2842L0.772461 28.4252Z" fill="#F7F7F7" stroke="#F7F7F7" stroke-width="0.712817" stroke-linecap="round" stroke-linejoin="round"/>
<path d="M11.4079 17.5586L9.07422 21.2682L17.376 21.6564L17.0952 12.267L11.4079 17.5586Z" fill="#F7F7F7" stroke="#F7F7F7" stroke-width="0.712817" stroke-linecap="round" stroke-linejoin="round"/>
<path d="M28.0137 17.6054L22.2377 12.267L22.0457 21.6564L30.3474 21.2726L28.0137 17.6054Z" fill="#F7F7F7" stroke="#F7F7F7" stroke-width="0.712817" stroke-linecap="round" stroke-linejoin="round"/>
<path d="M11.6685 34.9121L16.8571 32.3601L12.3875 28.8366L11.6685 34.9121Z" fill="#F7F7F7" stroke="#F7F7F7" stroke-width="0.712817" stroke-linecap="round" stroke-linejoin="round"/>
<path d="M22.5647 32.3601L27.2344 34.9121L26.5873 28.8366L22.5647 32.3601Z" fill="#F7F7F7" stroke="#F7F7F7" stroke-width="0.712817" stroke-linecap="round" stroke-linejoin="round"/>
<path d="M27.2344 34.7639L22.5647 32.1506L22.9364 35.6496L22.8957 37.1215L27.2344 34.7639Z" fill="#FEF9F9" stroke="#FEF9F9" stroke-width="0.712817" stroke-linecap="round" stroke-linejoin="round"/>
<path d="M11.6685 34.7639L16.4892 37.1215L16.4591 35.6496L16.8571 32.1506L11.6685 34.7639Z" fill="#FEF9F9" stroke="#FEF9F9" stroke-width="0.712817" stroke-linecap="round" stroke-linejoin="round"/>
<path d="M16.3384 26.075L12.1875 24.7583L15.1162 23.3134L16.3384 26.075Z" fill="#233447" stroke="#233447" stroke-width="0.712817" stroke-linecap="round" stroke-linejoin="round"/>
<path d="M22.5647 26.075L23.7827 23.3134L26.7156 24.7583L22.5647 26.075Z" fill="#233447" stroke="#233447" stroke-width="0.712817" stroke-linecap="round" stroke-linejoin="round"/>
<path d="M11.9758 34.9121L12.7064 28.2842L8.03662 28.4306L11.9758 34.9121Z" fill="#F7F7F7" stroke="#F7F7F7" stroke-width="0.712817" stroke-linecap="round" stroke-linejoin="round"/>
<path d="M26.7158 28.2842L27.444 34.9121L31.3856 28.4306L26.7158 28.2842Z" fill="#F7F7F7" stroke="#F7F7F7" stroke-width="0.712817" stroke-linecap="round" stroke-linejoin="round"/>
<path d="M30.3474 21.1042L22.0457 21.5004L22.8139 26.0751L24.0403 23.3206L26.9938 24.7618L30.3474 21.1042Z" fill="#F7F7F7" stroke="#F7F7F7" stroke-width="0.712817" stroke-linecap="round" stroke-linejoin="round"/>
<path d="M12.4424 24.7618L15.3813 23.3206L16.6078 26.0751L17.376 21.5004L9.07422 21.1042L12.4424 24.7618Z" fill="#F7F7F7" stroke="#F7F7F7" stroke-width="0.712817" stroke-linecap="round" stroke-linejoin="round"/>
<path d="M9.07422 21.1042L12.7062 28.8367L12.5835 24.987L9.07422 21.1042Z" fill="#F7F7F7" stroke="#F7F7F7" stroke-width="0.712817" stroke-linecap="round" stroke-linejoin="round"/>
<path d="M26.8538 24.987L26.7158 28.8367L30.3478 21.1042L26.8538 24.987Z" fill="#F7F7F7" stroke="#F7F7F7" stroke-width="0.712817" stroke-linecap="round" stroke-linejoin="round"/>
<path d="M17.3505 21.6566L16.3384 26.2163L17.6227 31.5984L17.895 24.5124L17.3505 21.6566Z" fill="#F7F7F7" stroke="#F7F7F7" stroke-width="0.712817" stroke-linecap="round" stroke-linejoin="round"/>
<path d="M21.8811 21.6566L21.5266 24.4969L21.6974 31.5984L22.5643 26.2163L21.8811 21.6566Z" fill="#F7F7F7" stroke="#F7F7F7" stroke-width="0.712817" stroke-linecap="round" stroke-linejoin="round"/>
<path d="M22.5078 26.2735L21.5266 31.6319L22.2398 32.1504L26.582 28.5688L26.7152 24.9702L22.5078 26.2735Z" fill="#F7F7F7" stroke="#F7F7F7" stroke-width="0.712817" stroke-linecap="round" stroke-linejoin="round"/>
<path d="M12.1875 24.9702L12.3065 28.5688L16.6609 32.1504L17.3761 31.6319L16.3921 26.2735L12.1875 24.9702Z" fill="#F7F7F7" stroke="#F7F7F7" stroke-width="0.712817" stroke-linecap="round" stroke-linejoin="round"/>
<path d="M22.5689 37.2628L22.6127 35.7952L22.2436 35.4486H16.6592L16.3047 35.7952L16.3338 37.2628L11.6685 34.9122L13.298 36.3316L16.6154 38.7785H22.2874L25.6048 36.3316L27.2343 34.9122L22.5689 37.2628Z" fill="#FEF9F9" stroke="#FEF9F9" stroke-width="0.712817" stroke-linecap="round" stroke-linejoin="round"/>
<path d="M22.1702 32.1722L21.4689 31.5983H17.4198L16.7185 32.1722L16.3384 36.0168L16.6883 35.6348H22.2004L22.5647 36.0168L22.1702 32.1722Z" fill="#161616" stroke="#161616" stroke-width="0.712817" stroke-linecap="round" stroke-linejoin="round"/>
<path d="M37.4073 13.745L38.6494 7.25235L36.787 1.22052L22.5647 12.5835L28.0355 17.5635L35.7662 19.9995L37.467 17.8504L36.7273 17.2782L37.9097 16.1151L37.0083 15.3517L38.1907 14.3814L37.4073 13.745Z" fill="#434343" stroke="#434343" stroke-width="0.712817" stroke-linecap="round" stroke-linejoin="round"/>
<path d="M0.772461 7.25235L2.02912 13.745L1.23115 14.3814L2.41355 15.3517L1.51219 16.1151L2.69459 17.2782L1.95486 17.8504L3.65565 19.9995L11.3864 17.5635L16.8571 12.5835L2.63488 1.22052L0.772461 7.25235Z" fill="#434343" stroke="#434343" stroke-width="0.712817" stroke-linecap="round" stroke-linejoin="round"/>
<path d="M35.5559 20.209L27.8634 17.7902L30.1875 21.5678L26.7158 28.8366L31.3047 28.7728H38.1308L35.5559 20.209Z" fill="#F7F7F7" stroke="#F7F7F7" stroke-width="0.712817" stroke-linecap="round" stroke-linejoin="round"/>
<path d="M11.505 17.7902L3.45256 20.209L0.772461 28.7728H7.91788L12.7063 28.8366L9.07212 21.5678L11.505 17.7902Z" fill="#F7F7F7" stroke="#F7F7F7" stroke-width="0.712817" stroke-linecap="round" stroke-linejoin="round"/>
<path d="M21.9379 21.7067L22.4342 12.6459L24.6398 6.19135H14.7815L16.9871 12.6459L17.4835 21.7067L17.6734 24.5636L17.6878 31.5981H21.7336L21.7479 24.5636L21.9379 21.7067Z" fill="#F7F7F7" stroke="#F7F7F7" stroke-width="0.712817" stroke-linecap="round" stroke-linejoin="round"/>
</svg>
