<svg width="42" height="40" viewBox="0 0 42 40" fill="none" xmlns="http://www.w3.org/2000/svg">
<path d="M39.1871 38.2349V36.0717C39.1871 35.639 38.9072 35.3506 38.4873 35.3506H37.0878V18.0448H39.1871C39.6069 18.0448 39.8868 17.7564 39.8868 17.3238V14.6558C39.8868 14.4395 39.8169 14.2232 39.6069 14.0789L34.2887 10.0409V1.46017C34.2887 1.02753 34.0088 0.739099 33.5889 0.739099H27.9908C27.5709 0.739099 27.291 1.02753 27.291 1.46017V4.63289L21.4129 0.162241C21.133 -0.0540804 20.8531 -0.0540804 20.5732 0.162241L2.86905 13.7184H2.79908V13.7905L2.37922 14.0789C2.16929 14.2232 2.09931 14.4395 2.09931 14.6558V17.3238C2.09931 17.7564 2.37921 18.0448 2.79908 18.0448H4.89838V35.3506H3.49885C3.07898 35.3506 2.79908 35.639 2.79908 36.0717V38.2349H0V39.677H3.49885H38.4873H41.9861V38.2349H39.1871ZM32.8891 2.18124V2.90232H28.6905V2.18124H32.8891ZM28.6905 4.34446H32.8891V8.95933L28.6905 5.7145V4.34446ZM3.49885 15.1605H31.4896V13.7184H5.17829L20.9931 1.60511L38.4873 15.0171V16.6034H36.388H5.59815H3.49885V15.1605ZM6.29792 18.0448H35.6882V35.3506H18.194V25.2556H19.5935V23.8134H17.4942H9.79677H7.69746V25.2556H9.097V35.3506H6.29792V18.0448ZM10.4965 25.2556H16.7945V35.3506H10.4965V25.2556ZM4.19861 38.2349V36.7927H5.59815H9.79677H17.4942H36.388H37.7875V38.2349H4.19861Z" fill="#F7F7F7"/>
</svg>
