<svg width="200" height="42" viewBox="0 0 200 42" fill="none" xmlns="http://www.w3.org/2000/svg">
<g clip-path="url(#clip0_1_360)">
<path fill-rule="evenodd" clip-rule="evenodd" d="M39.2278 20.9995C39.2278 32.2618 30.65 41.3928 20.07 41.3928C9.48996 41.3928 0.912109 32.2618 0.912109 20.9995C0.912109 9.73722 9.48996 0.606201 20.07 0.606201C30.6522 0.606201 39.2278 9.73722 39.2278 20.9995ZM10.3638 21.6848L10.4464 21.5464L15.4302 13.2473C15.503 13.1258 15.6742 13.1383 15.7293 13.2703C16.5619 15.2566 17.2804 17.7269 16.9438 19.2648C16.8001 19.8975 16.4065 20.7544 15.9636 21.5464C15.9065 21.6617 15.8435 21.7748 15.7766 21.8838C15.7451 21.9341 15.6919 21.9634 15.6349 21.9634H10.5094C10.3717 21.9634 10.291 21.8042 10.3638 21.6848ZM32.5779 24.5405V23.2269C32.5779 23.1053 32.4677 23.0173 32.3594 23.0509L26.5313 24.8444C26.4998 24.8527 26.4722 24.8716 26.4506 24.8967C25.8264 25.6307 25.2959 26.1232 25.1554 26.2537L25.1456 26.2628C24.7835 26.5897 24.3347 26.7678 23.8623 26.7678H21.7523V24.4777H23.4293C23.4726 24.4777 23.5139 24.4609 23.5454 24.4316L23.7619 24.22C23.8544 24.1299 23.9647 24.0209 24.0965 23.8805C24.1077 23.8686 24.1191 23.8565 24.1306 23.8443C24.1999 23.7708 24.2739 23.6923 24.3465 23.6061C24.4331 23.516 24.5178 23.4154 24.5965 23.3169C24.7283 23.1661 24.8543 23.0089 24.9862 22.8434C25.0807 22.7345 25.1673 22.6109 25.2519 22.4872C25.3464 22.3699 25.4389 22.2379 25.5255 22.1122C25.5577 22.0618 25.592 22.0108 25.6271 21.9587C25.6605 21.9091 25.6946 21.8584 25.7282 21.8063C25.7912 21.7057 25.8542 21.5989 25.9074 21.4983C26.0727 21.2259 26.2125 20.9346 26.3305 20.6434C26.3847 20.5187 26.4281 20.3874 26.4702 20.2597C26.4755 20.2437 26.4808 20.2277 26.486 20.2118C26.5333 20.063 26.5726 19.9227 26.6022 19.7739C26.673 19.424 26.6888 19.0762 26.6573 18.7284C26.6494 18.6194 26.6415 18.5126 26.6179 18.412V18.3953C26.61 18.324 26.5943 18.2444 26.5726 18.1711C26.5018 17.8316 26.3915 17.4922 26.2518 17.1591C26.2046 17.0354 26.1495 16.9097 26.0963 16.7945C25.9703 16.5452 25.8385 16.2958 25.6889 16.0549C25.6589 16.004 25.6257 15.9524 25.5926 15.901C25.5671 15.8613 25.5416 15.8217 25.5176 15.7825C25.4229 15.627 25.3164 15.4771 25.2131 15.3316C25.1897 15.2987 25.1665 15.266 25.1436 15.2336C25.0826 15.1483 25.0159 15.063 24.9486 14.9772C24.9118 14.9302 24.8748 14.8829 24.8386 14.8355C24.7362 14.7035 24.6358 14.5778 24.5335 14.4541C24.1674 14.0141 23.7836 13.6161 23.4411 13.2766C23.3781 13.2096 23.3092 13.1425 23.2384 13.0776C22.9726 12.8199 22.7305 12.5957 22.5278 12.4218C22.4669 12.3719 22.4123 12.3228 22.3614 12.277C22.3268 12.2459 22.294 12.2163 22.2621 12.1892C22.2006 12.1404 22.1473 12.0972 22.1025 12.0609C22.0742 12.0379 22.0492 12.0177 22.0279 12.0006C22.0121 11.9881 21.9944 11.9797 21.9767 11.9734L21.7523 11.9064V9.92846C21.7523 9.60579 21.6303 9.31666 21.4354 9.10501C21.2405 8.89341 20.9689 8.76351 20.6698 8.76351C20.0714 8.76351 19.5872 9.28521 19.5872 9.92846V11.261L19.475 11.2275L19.1699 11.1353L18.8924 11.0536C18.8916 11.0536 18.8907 11.0532 18.8898 11.0528C18.8884 11.0522 18.8868 11.0515 18.8845 11.0515H18.8786L16.7725 10.4439C16.68 10.4166 16.6013 10.5235 16.6485 10.6136L16.9851 11.2757C17.0042 11.3266 17.0284 11.3775 17.0533 11.4297C17.0694 11.4636 17.0858 11.498 17.1012 11.5334C17.1564 11.6507 17.2115 11.7743 17.2646 11.898C17.3118 12.0069 17.3591 12.1138 17.4142 12.2311C17.4373 12.2863 17.461 12.3421 17.4849 12.3987C17.5729 12.6067 17.6654 12.8253 17.7566 13.0608C17.8354 13.2599 17.9141 13.4589 17.983 13.6663C18.172 14.188 18.3511 14.7454 18.5066 15.3174C18.5453 15.4454 18.5762 15.5693 18.6076 15.6949C18.6209 15.7481 18.6342 15.8016 18.6483 15.8559L18.6699 15.9564C18.7329 16.2225 18.7881 16.4865 18.8274 16.7526C18.8589 16.9349 18.8884 17.1088 18.9042 17.2848C18.9278 17.4838 18.9514 17.6829 18.9593 17.8819C18.975 18.0642 18.9829 18.2549 18.9829 18.4372C18.9829 18.9023 18.9436 19.3507 18.851 19.7739C18.8452 19.7966 18.8394 19.8197 18.8336 19.8429C18.8077 19.9459 18.7808 20.0526 18.7487 20.1553C18.7196 20.2651 18.6819 20.375 18.6428 20.4891C18.629 20.5295 18.6149 20.5704 18.6011 20.612C18.5985 20.6194 18.5959 20.6268 18.5933 20.6343C18.5643 20.7173 18.5349 20.8017 18.4987 20.8844C18.3038 21.3831 18.0618 21.8796 17.8118 22.3448C17.4457 23.0341 17.0776 23.6396 16.8198 24.0293C16.804 24.0545 16.7886 24.0785 16.7738 24.1015C16.7553 24.1303 16.7377 24.1576 16.7214 24.1844C16.6407 24.3059 16.7233 24.4777 16.8631 24.4777H19.5872V26.7678H16.8316C16.0915 26.7678 15.4065 26.3215 15.0759 25.607C14.9046 25.2487 14.8377 24.8548 14.8771 24.4693C14.8869 24.3541 14.8062 24.2451 14.696 24.2451H9.12964C9.03516 24.2451 8.95841 24.3268 8.95841 24.4274V24.5489C8.95841 28.3287 11.8262 31.3919 15.3652 31.3919H25.3503C27.222 31.3919 28.2848 29.5763 29.3295 27.7918C29.6207 27.2943 29.9104 26.7993 30.216 26.3466C30.7651 25.5337 32.0858 24.8883 32.4716 24.7123C32.5346 24.683 32.5779 24.616 32.5779 24.5405Z" fill="white"/>
</g>
<path d="M63.8358 32.7235C61.7238 32.7235 59.7825 32.2328 58.0118 31.2515C56.2625 30.2702 54.8651 28.9048 53.8198 27.1555C52.7958 25.3848 52.2838 23.4008 52.2838 21.2035C52.2838 19.0062 52.7958 17.0328 53.8198 15.2835C54.8651 13.5342 56.2625 12.1688 58.0118 11.1875C59.7825 10.2062 61.7238 9.71551 63.8358 9.71551C65.9478 9.71551 67.8785 10.2062 69.6278 11.1875C71.3985 12.1688 72.7851 13.5342 73.7878 15.2835C74.8118 17.0328 75.3238 19.0062 75.3238 21.2035C75.3238 23.4008 74.8118 25.3848 73.7878 27.1555C72.7638 28.9048 71.3771 30.2702 69.6278 31.2515C67.8785 32.2328 65.9478 32.7235 63.8358 32.7235ZM63.8358 27.7315C65.6278 27.7315 67.0571 27.1342 68.1238 25.9395C69.2118 24.7448 69.7558 23.1662 69.7558 21.2035C69.7558 19.2195 69.2118 17.6408 68.1238 16.4675C67.0571 15.2728 65.6278 14.6755 63.8358 14.6755C62.0225 14.6755 60.5718 15.2622 59.4838 16.4355C58.4171 17.6088 57.8838 19.1982 57.8838 21.2035C57.8838 23.1875 58.4171 24.7768 59.4838 25.9715C60.5718 27.1448 62.0225 27.7315 63.8358 27.7315ZM82.88 17.1715C83.4134 16.3395 84.1494 15.6675 85.088 15.1555C86.0267 14.6435 87.1254 14.3875 88.384 14.3875C89.856 14.3875 91.1894 14.7608 92.384 15.5075C93.5787 16.2542 94.5174 17.3208 95.2 18.7075C95.904 20.0942 96.256 21.7048 96.256 23.5395C96.256 25.3742 95.904 26.9955 95.2 28.4035C94.5174 29.7902 93.5787 30.8675 92.384 31.6355C91.1894 32.3822 89.856 32.7555 88.384 32.7555C87.1467 32.7555 86.048 32.4995 85.088 31.9875C84.1494 31.4755 83.4134 30.8142 82.88 30.0035V41.0115H77.408V14.6435H82.88V17.1715ZM90.688 23.5395C90.688 22.1742 90.304 21.1075 89.536 20.3395C88.7894 19.5502 87.8614 19.1555 86.752 19.1555C85.664 19.1555 84.736 19.5502 83.968 20.3395C83.2214 21.1288 82.848 22.2062 82.848 23.5715C82.848 24.9368 83.2214 26.0142 83.968 26.8035C84.736 27.5928 85.664 27.9875 86.752 27.9875C87.84 27.9875 88.768 27.5928 89.536 26.8035C90.304 25.9928 90.688 24.9048 90.688 23.5395ZM114.999 23.2835C114.999 23.7955 114.967 24.3288 114.903 24.8835H102.519C102.604 25.9928 102.956 26.8462 103.575 27.4435C104.215 28.0195 104.993 28.3075 105.911 28.3075C107.276 28.3075 108.225 27.7315 108.759 26.5795H114.583C114.284 27.7528 113.74 28.8088 112.951 29.7475C112.183 30.6862 111.212 31.4222 110.039 31.9555C108.865 32.4888 107.553 32.7555 106.103 32.7555C104.353 32.7555 102.796 32.3822 101.431 31.6355C100.065 30.8888 98.9988 29.8222 98.2308 28.4355C97.4628 27.0488 97.0788 25.4275 97.0788 23.5715C97.0788 21.7155 97.4521 20.0942 98.1988 18.7075C98.9668 17.3208 100.033 16.2542 101.399 15.5075C102.764 14.7608 104.332 14.3875 106.103 14.3875C107.831 14.3875 109.367 14.7502 110.711 15.4755C112.055 16.2008 113.1 17.2355 113.847 18.5795C114.615 19.9235 114.999 21.4915 114.999 23.2835ZM109.399 21.8435C109.399 20.9048 109.079 20.1582 108.439 19.6035C107.799 19.0488 106.999 18.7715 106.039 18.7715C105.121 18.7715 104.343 19.0382 103.703 19.5715C103.084 20.1048 102.7 20.8622 102.551 21.8435H109.399ZM127.806 14.4515C129.896 14.4515 131.56 15.1342 132.798 16.4995C134.056 17.8435 134.686 19.6995 134.686 22.0675V32.4995H129.246V22.8035C129.246 21.6088 128.936 20.6808 128.318 20.0195C127.699 19.3582 126.867 19.0275 125.822 19.0275C124.776 19.0275 123.944 19.3582 123.326 20.0195C122.707 20.6808 122.398 21.6088 122.398 22.8035V32.4995H116.926V14.6435H122.398V17.0115C122.952 16.2222 123.699 15.6035 124.638 15.1555C125.576 14.6862 126.632 14.4515 127.806 14.4515ZM145.656 32.7235C144.013 32.7235 142.541 32.4568 141.24 31.9235C139.939 31.3902 138.893 30.6008 138.104 29.5555C137.336 28.5102 136.931 27.2515 136.888 25.7795H142.712C142.797 26.6115 143.085 27.2515 143.576 27.6995C144.067 28.1262 144.707 28.3395 145.496 28.3395C146.307 28.3395 146.947 28.1582 147.416 27.7955C147.885 27.4115 148.12 26.8888 148.12 26.2275C148.12 25.6728 147.928 25.2142 147.544 24.8515C147.181 24.4888 146.723 24.1902 146.168 23.9555C145.635 23.7208 144.867 23.4542 143.864 23.1555C142.413 22.7075 141.229 22.2595 140.312 21.8115C139.395 21.3635 138.605 20.7022 137.944 19.8275C137.283 18.9528 136.952 17.8115 136.952 16.4035C136.952 14.3128 137.709 12.6808 139.224 11.5075C140.739 10.3128 142.712 9.71551 145.144 9.71551C147.619 9.71551 149.613 10.3128 151.128 11.5075C152.643 12.6808 153.453 14.3235 153.56 16.4355H147.64C147.597 15.7102 147.331 15.1448 146.84 14.7395C146.349 14.3128 145.72 14.0995 144.952 14.0995C144.291 14.0995 143.757 14.2808 143.352 14.6435C142.947 14.9848 142.744 15.4862 142.744 16.1475C142.744 16.8728 143.085 17.4382 143.768 17.8435C144.451 18.2488 145.517 18.6862 146.968 19.1555C148.419 19.6462 149.592 20.1155 150.488 20.5635C151.405 21.0115 152.195 21.6622 152.856 22.5155C153.517 23.3688 153.848 24.4675 153.848 25.8115C153.848 27.0915 153.517 28.2542 152.856 29.2995C152.216 30.3448 151.277 31.1768 150.04 31.7955C148.803 32.4142 147.341 32.7235 145.656 32.7235ZM173.088 23.2835C173.088 23.7955 173.056 24.3288 172.992 24.8835H160.608C160.693 25.9928 161.045 26.8462 161.664 27.4435C162.304 28.0195 163.082 28.3075 164 28.3075C165.365 28.3075 166.314 27.7315 166.848 26.5795H172.672C172.373 27.7528 171.829 28.8088 171.04 29.7475C170.272 30.6862 169.301 31.4222 168.128 31.9555C166.954 32.4888 165.642 32.7555 164.192 32.7555C162.442 32.7555 160.885 32.3822 159.52 31.6355C158.154 30.8888 157.088 29.8222 156.32 28.4355C155.552 27.0488 155.168 25.4275 155.168 23.5715C155.168 21.7155 155.541 20.0942 156.288 18.7075C157.056 17.3208 158.122 16.2542 159.488 15.5075C160.853 14.7608 162.421 14.3875 164.192 14.3875C165.92 14.3875 167.456 14.7502 168.8 15.4755C170.144 16.2008 171.189 17.2355 171.936 18.5795C172.704 19.9235 173.088 21.4915 173.088 23.2835ZM167.488 21.8435C167.488 20.9048 167.168 20.1582 166.528 19.6035C165.888 19.0488 165.088 18.7715 164.128 18.7715C163.21 18.7715 162.432 19.0382 161.792 19.5715C161.173 20.1048 160.789 20.8622 160.64 21.8435H167.488ZM173.926 23.5395C173.926 21.7048 174.268 20.0942 174.95 18.7075C175.654 17.3208 176.604 16.2542 177.798 15.5075C178.993 14.7608 180.326 14.3875 181.798 14.3875C183.057 14.3875 184.156 14.6435 185.094 15.1555C186.054 15.6675 186.79 16.3395 187.302 17.1715V14.6435H192.774V32.4995H187.302V29.9715C186.769 30.8035 186.022 31.4755 185.062 31.9875C184.124 32.4995 183.025 32.7555 181.766 32.7555C180.316 32.7555 178.993 32.3822 177.798 31.6355C176.604 30.8675 175.654 29.7902 174.95 28.4035C174.268 26.9955 173.926 25.3742 173.926 23.5395ZM187.302 23.5715C187.302 22.2062 186.918 21.1288 186.15 20.3395C185.404 19.5502 184.486 19.1555 183.398 19.1555C182.31 19.1555 181.382 19.5502 180.614 20.3395C179.868 21.1075 179.494 22.1742 179.494 23.5395C179.494 24.9048 179.868 25.9928 180.614 26.8035C181.382 27.5928 182.31 27.9875 183.398 27.9875C184.486 27.9875 185.404 27.5928 186.15 26.8035C186.918 26.0142 187.302 24.9368 187.302 23.5715Z" fill="white"/>
<defs>
<clipPath id="clip0_1_360">
<rect width="38.3157" height="40.7866" fill="white" transform="translate(0.912109 0.606201)"/>
</clipPath>
</defs>
</svg>
